Patient4_TMGait_0pt3_01_left_08_EMG.mot
version=1
nRows=30
nColumns=33
inDegrees=no
endheader
time	1LAddLong	2LGlutMax	3LGlutMed	4LIliopsoas	5LSemiMemb	6LBicFemLong	7LRecFem	8LVastMed	9LVastLat	10LGasMed	11LTibAnt	12lTibPost	13LPeroneusLong	14LSol	15LExtDigLong	16LFlexDigLong	17RAddLong	18RGlutMax	19RGlutMed	20RIliopsoas	21RSemiMemb	22RBicFemLong	23RRecFem	24RVastMed	25RVastLat	26RGasMed	27RTibAnt	28RTibPost	29RPeroneusLong	30RSol	31RExtDigLong	32RFlexDigLong
14.51	0.006256	-0.017395	-0.005951	0.000305	0.001221	-0.015106	0.054169	0.008545	0.001373	-0.007324	0.27206	0.002289	-0.03479	-0.08728	0.10208	-0.010986	0.000153	-0.010376	0.44754	-0.009308	-0.003052	-0.096283	0.024719	-0.078125	-0.048523	-0.011749	-0.55222	-0.001984	0.23483	0.1416	-0.000305	-0.001831
14.511	0.006256	0.003967	-0.030365	0.008087	-0.011597	0.000916	0.058594	0.012665	-0.015259	-0.028534	-0.016022	0.003815	-0.044708	-0.018616	0.23025	0.014801	0.009766	-0.002136	0.21637	-0.039673	0.010529	-0.12253	-0.008392	-0.029755	-0.025024	-0.014343	-1.174	-0.002899	1.6023	0.27695	0.002289	-0.009766
14.512	-0.004425	0.041809	-0.014648	0.014343	0.008087	-0.011902	0.06485	0.00824	-0.026245	-0.037537	-0.050659	0.000763	0.022583	-0.044403	0.31311	-0.003357	0.021057	-0.03952	0.041199	0.15045	0.021362	-0.13336	-0.000763	-0.030975	-0.008545	-0.016327	-0.82733	-0.000305	0.28198	0.18494	0.016327	-0.008087
14.513	0.006714	0.028076	-0.023804	0.01236	-0.004883	-0.020447	0.068054	0.005188	-0.020599	-0.031128	-0.023193	0.001831	0.083923	-0.003662	-0.16922	0.010223	0.031891	-0.078735	-0.12756	0.29923	-0.052185	-0.16937	0.027771	-0.032806	0.14481	-0.001831	0.12863	-0.007019	0.42267	-0.080566	0.003662	-0.009613
14.514	0.002594	0.0354	-0.040741	0.005035	0.007629	-0.015564	0.059967	0.007629	-0.02121	-0.031738	-0.050201	-0.000458	0.029297	-0.015106	0.12436	0.003967	-0.003967	-0.0383	-0.078125	0.18662	-0.094299	-0.089569	0.011902	0.10635	0.26657	-0.003815	0.28122	0.000763	0.17624	0.072327	0.008392	-0.015869
14.515	0.00885	0.008698	-0.036469	0.011749	0.000153	-0.026398	0.068665	0.002441	-0.013428	-0.031128	-0.091248	-0.006866	0.010071	-0.037537	-0.4567	0.021362	-0.018616	-0.07782	-0.054016	0.072021	0.005646	-0.025482	0.1294	0.14267	0.20966	-0.012665	0.31067	-0.005493	0.005188	0.34195	0.002747	-0.018158
14.516	0.009766	0.023956	-0.027313	-0.007477	0.011444	-0.033875	0.046692	0.000763	-0.014496	-0.010834	0.072937	0.005798	-0.006561	-0.11368	-0.12085	0.005341	0.005646	-0.026245	-0.10422	-0.002136	0.000916	0.075531	0.26535	0.14069	0.1355	-0.01709	0.31708	-0.005035	0.29022	0.39108	0.004578	-0.015869
14.517	0.010834	0.048523	-0.013123	0.016327	-0.004883	-0.027008	0.046844	0.006866	-0.013428	-0.027313	0.1474	0.002899	0.019531	-0.065613	-0.076447	0.008698	0.016785	-0.040436	-0.094299	-0.003357	0.008698	0.014954	0.21927	0.098114	0.15243	-0.02182	-0.46234	-0.006104	0.24902	0.36514	0.002289	-0.019379
14.518	0.015411	0.059052	-0.01709	0.017395	-0.005188	-0.009308	0.054626	0.006409	-0.012817	-0.020447	-0.11734	0.003967	0.005798	-0.039063	-0.32181	0.00061	0.012817	-0.056915	-0.28641	-0.04364	-0.026703	-0.001526	0.24536	-0.066528	0.084686	-0.014648	-0.99731	-0.001984	0.53833	0.37872	0.002136	-0.007019
14.519	0.010834	0.06424	-0.029144	0.007324	-0.010681	0.007782	0.053864	0.007629	-0.007019	0.005951	-0.074768	0.008545	-0.003357	-0.089569	-0.2002	0.010529	0.0354	-0.040588	-0.21027	-0.061646	-0.0354	-0.012512	0.17654	-0.20935	-0.048828	-0.015564	-0.77698	-0.004425	0.87326	0.44739	0.004272	-0.00473
14.52	0.008087	0.06073	-0.032654	0.000458	-0.009308	0.018768	0.054016	0.008392	-0.011292	-0.011597	-0.12131	-0.001831	0.073853	-0.081787	0.033112	0.009003	0.0354	-0.055695	-0.047455	-0.061646	-0.026245	0.061798	0.11124	-0.26581	-0.07019	-0.016174	-0.26032	0.000763	-0.25894	0.23148	0.006409	-0.008698
14.521	0.005951	0.055847	-0.015717	0.010834	0.007629	0.032043	0.061035	0.007935	-0.013428	-0.027466	-0.084686	0.002441	0.077972	0.018616	0.42999	0.02594	0.03006	-0.031281	0.12253	-0.085297	-0.01297	0.093231	-0.045166	-0.16083	0.21301	-0.010376	-0.13718	0.003357	-1.3972	-0.002747	0.007019	-0.00946
14.522	0.007629	0.080566	0.016632	0.00824	-0.015869	0.024872	0.075684	-0.000763	-0.016479	-0.020142	-0.03891	0.003662	0.060272	-0.030823	0.2063	0.007935	0.001221	0.014496	-0.1828	-0.048523	0.011139	0.095367	-0.2153	-0.092468	0.31082	-0.016327	-0.62134	-0.009003	-0.76141	0.07431	0.006256	-0.00946
14.523	0.009613	0.062714	-0.023499	0.010834	-0.00061	0.020142	0.06424	0.001984	-0.006104	-0.010681	-0.029144	0.004272	-0.002289	-0.063171	-0.17059	0.000763	-0.037537	0.099945	-0.063171	-0.019531	0.053864	0.15472	-0.32593	0.057068	0.24124	-0.011597	-0.65796	-0.00824	-0.005493	0.073547	0.010834	-0.010071
14.524	0.009918	0.071564	-0.041504	-0.005493	-0.018463	0.009918	0.059509	0.003052	-0.000458	0.010529	0.094299	0.003967	-0.088501	-0.024109	0.09201	0.001221	-0.038452	0.14267	-0.16464	-0.00473	0.040894	0.11505	-0.62164	0.16922	0.38742	-0.012512	-0.41046	-0.006866	0.3595	0.038147	0.009766	-0.011597
14.525	0.012817	0.07431	-0.063477	0.00473	-0.021515	-0.008392	0.043793	0.005798	-0.007782	-0.012665	0.15121	0	-0.042877	0.033722	0.22446	0.005035	-0.034332	0.16205	-0.41733	-0.05661	0.015106	0.009003	-0.70419	0.49515	0.42694	-0.005798	0.041351	-0.002899	0.38773	-0.03479	0.00885	-0.006409
14.526	0.010529	0.068207	-0.067444	0.010986	-0.009613	-0.012665	0.042572	0.006714	0.006409	-0.048828	0.024261	-0.009003	0.054016	0.073547	-0.077362	0.011597	-0.020142	0.19455	0.062561	-0.10361	0.009918	-0.078735	-0.634	0.56671	0.036163	-0.006104	0.25421	-0.011139	0.30594	0.048981	0.006866	0.002136
14.527	0.023193	0.072174	-0.077362	0.011292	-0.017853	-0.0177	0.037079	0.007935	0.006409	-0.037231	-0.090027	0.004578	0.058289	0.024719	-0.057678	0.005951	-0.023346	0.1503	1.1768	-0.098572	0.014496	-0.12207	-0.4274	0.24124	-0.32394	-0.00412	0.068512	-0.005341	-0.12497	0.103	0.009918	-0.000153
14.528	0.013123	0.062866	-0.097198	0.010681	-0.009613	-0.005341	0.044861	0.002899	0.011597	-0.014343	-0.052338	0.002594	0.032654	-0.060883	-0.13168	0.002747	-0.011902	0.084686	0.64926	-0.030823	0.001526	-0.15503	-0.17731	-0.099182	-0.44342	-0.005493	0.2655	-0.003052	-0.20996	0.029449	0.00351	-0.00473
14.529	0.01297	0.069275	-0.021973	-0.001373	0.002441	-0.010529	0.045929	0.014496	0.007324	-0.007019	0.018463	0.008698	0.0383	-0.035706	-0.12589	0.004272	0.003052	0.070953	-0.19974	0.088806	0.001678	-0.11948	0.029602	0.070801	-0.6218	-0.00885	0.31311	-0.006714	0.16312	0.000305	0.010223	-0.003967
14.53	0.003204	0.088348	0.04837	-0.004578	-0.007629	-0.027466	0.063629	0.000305	0.011597	-0.002441	0.038147	-0.002289	0.007019	-0.070496	-0.015564	0.004578	-0.02533	0.11597	-0.41657	0.094604	0.014801	-0.0383	0.089417	0.83313	-0.58731	-0.015259	0.2507	-0.008545	0.75699	0.016479	0.017395	-0.001068
14.531	0.0177	0.076294	0.082703	0.008087	-0.002441	-0.037079	0.043488	0.007324	0.010986	-0.00885	0.054016	0.002289	-0.023041	-0.048065	0.78415	-0.001831	-0.014648	0.07431	0.027771	0.052948	0.010071	0.09079	0.10193	0.80444	-0.35889	-0.02243	0.26962	-0.000458	-0.046844	0.16693	0.013428	-0.004578
14.532	0.007782	0.069885	0.052185	0.019836	-0.007019	-0.038147	0.049133	0.000763	0.008087	0.014801	0.056305	-0.005798	-0.050964	-0.056305	-0.37384	0.010529	-0.001068	0.07019	0.68573	-0.01709	0.004578	0.10803	0.063477	0.39322	-0.053253	-0.015869	0.25833	-0.003815	-0.6282	0.19669	0.012512	-0.004425
14.533	0.006409	0.062561	0.010681	0.015564	-0.010223	-0.038605	0.068665	-0.001831	0.002136	-0.001831	0.034943	0.001068	-0.076294	-0.00412	-0.10544	0.000458	0.010223	0.095367	0.35233	-0.064392	-0.010376	0.095367	0.23025	-0.13229	-0.055695	-0.016327	0.26504	0.002899	-0.44144	0.038452	0.011749	-0.013733
14.534	0.009613	0.064087	0.028992	-0.014038	-0.005035	-0.048676	0.059814	-0.003204	0.004425	-0.03006	-0.015259	0.001831	-0.015717	0.021515	-0.018921	0.020905	0.009155	0.050049	-0.25284	-0.089722	-0.014038	0.07843	0.1799	-0.31799	-0.046997	-0.015869	0.25253	0.001984	0.70023	-0.15442	0.008698	-0.007324
14.535	0.006409	0.1004	0.003357	-0.001221	-0.006866	-0.035706	0.056305	0.001526	0.011139	-0.018768	0.13336	0.006256	0.006409	0.007629	0.15106	0.010529	0.017548	0.086212	-0.19592	-0.088043	-0.007935	0.021973	0.078583	-0.62134	-0.000153	-0.01709	0.30746	-0.00473	1.02	-0.095825	0.014038	-0.014191
14.536	0.007477	0.093994	0.024414	-0.015717	0.001678	-0.040588	0.061035	0.003815	-0.000916	-0.023193	0.15595	-0.000458	0.021362	0.057983	0.55298	-0.002289	0.016785	0.088348	-0.18066	-0.09201	-0.003967	0.00473	0.04364	-0.56946	0.12146	-0.005646	0.46234	0	0.092316	-0.17395	0.013123	-0.001678
14.537	0.004272	0.11749	0.028381	-0.004272	-0.005798	-0.014648	0.068359	0.003357	-0.006104	-0.02655	-0.089417	0.001984	0.025482	0.098724	0.003967	0.000305	0.015106	0.12604	-0.060272	0.003204	0.014954	-0.11383	0.068512	-0.29312	0.15106	0.001831	0.24735	-0.003662	-0.784	-0.21729	0.008545	-0.007477
14.538	0.015564	0.11658	0.016937	-0.00351	-0.009003	-0.010071	0.036469	0.003815	0.003052	-0.018768	-0.21057	-0.005951	0.028687	-0.02594	-0.33722	-0.012207	0.017548	0.096893	0.39154	0.041656	0.005035	-0.30807	0.058441	-0.31921	0.040588	0.011444	0.27313	-0.005646	-0.37842	-0.26932	0.015564	-0.000916
14.539	0.009766	0.10956	-0.008545	0.007324	-0.00885	0.00412	0.030212	0.005341	-0.001526	0.005951	-0.15137	0.001984	0.018921	-0.093384	-0.032196	-0.010529	0.005798	0.05661	0.15213	0.068359	-0.006561	-0.32547	-0.007019	-0.31616	-0.11108	-0.009918	0.27054	-0.012207	0.27283	-0.1471	0.016174	0.003204
